<?xml version="1.0" encoding="utf-8"?>
<!-- Generator: Adobe Illustrator 25.1.0, SVG Export Plug-In . SVG Version: 6.00 Build 0)  -->
<svg version="1.1" xmlns="http://www.w3.org/2000/svg" xmlns:xlink="http://www.w3.org/1999/xlink" x="0px" y="0px"
	 viewBox="0 0 534.26 301.26" style="enable-background:new 0 0 534.26 301.26;" xml:space="preserve">
<style type="text/css">
	.st0{clip-path:url(#SVGID_2_);}
	.st1{fill:#E2FFFC;}
	.st2{fill:#B91E32;}
	.st3{fill:#FFB37E;}
	.st4{fill:#F3926E;}
	.st5{fill:#003F49;}
	.st6{fill:#353165;}
	.st7{fill:#FFFFFF;}
	.st8{fill:#E1E3EF;}
	.st9{fill:none;stroke:#6B384F;stroke-miterlimit:10;}
	.st10{fill:#6B384F;}
	.st11{fill:none;stroke:#6B384F;stroke-width:2;stroke-linecap:round;stroke-miterlimit:10;}
	.st12{fill:#00CCE1;}
	.st13{fill:url(#SVGID_3_);}
	.st14{fill:url(#SVGID_4_);}
	.st15{fill:url(#SVGID_5_);}
	.st16{fill:url(#SVGID_6_);}
	.st17{fill:url(#SVGID_7_);}
	.st18{fill:url(#SVGID_8_);}
	.st19{fill:none;stroke:#6B384F;stroke-width:0.5;stroke-miterlimit:10;}
	.st20{fill:#00E565;}
	.st21{fill:#E3E3CD;}
	.st22{fill:#00808F;}
	.st23{fill:none;stroke:#353165;stroke-width:2;stroke-miterlimit:10;}
	.st24{fill:#00C9AA;}
</style>
<g id="BACKGROUND">
</g>
<g id="OBJECTS">
	<g>
		<defs>
			<rect id="SVGID_1_" width="534.26" height="301.26"/>
		</defs>
		<clipPath id="SVGID_2_">
			<use xlink:href="#SVGID_1_"  style="overflow:visible;"/>
		</clipPath>
		<g class="st0">
			<path class="st1" d="M524.3,301.78H1.24c0,0-4.61-57.2,57.2-69.19c61.81-11.99,96.86-47.05,96.86-78.41S192.2,23.88,266,29.41
				c73.8,5.54,70.95,13.56,107.93-12.92C410.91-9.98,484.81-4.77,512.31,41.4c48.89,82.1-19.37,119.23-1.85,144.14
				c17.53,24.91,23.99,55.35,24.91,74.72C536.29,279.64,524.3,301.78,524.3,301.78z"/>
			<path class="st2" d="M431.24,47.18c0,0-11.05-5.81-26.17-3.2c-15.12,2.62-23.84,13.08-23.84,22.97s-3.49,18.61-7.56,26.75
				c-4.07,8.14-20.06,19.77-20.06,19.77s6.69,21.51,29.95,28.49c23.26,6.98,45.65,4.07,57.28,2.33
				c11.63-1.74,30.24-11.63,30.24-11.63s-11.63-12.21-14.83-31.98c-3.2-19.77-6.69-38.96-11.34-44.19
				C440.25,51.25,431.24,47.18,431.24,47.18z"/>
			<path class="st3" d="M279.49,192.11c0,0-6.92-16.95-9.34-21.45c-2.42-4.5-9.69-6.92-12.8-7.96c-3.11-1.04-13.84-9.69-15.22-11.76
				c-1.38-2.08-4.15,2.42-0.35,5.88c3.81,3.46,9.34,8.3,9.34,8.3l-20.76,2.08c0,0-15.22-8.3-14.18-4.5
				c1.04,3.81,11.07,16.26,17.3,17.3c6.23,1.04,28.37,1.38,28.37,1.38l8.99,18.33L279.49,192.11z"/>
			<path class="st4" d="M240.22,173.55c3.63-0.92,14.81-3.59,14.81-3.59l-3.91-4.83l-20.76,2.08c0,0-15.22-8.3-14.18-4.5
				c1.04,3.81,11.07,16.26,17.3,17.3c1.1,0.18,2.7,0.34,4.58,0.49C237.81,177.9,237.88,174.14,240.22,173.55z"/>
			<path class="st3" d="M234.86,180c0,0-14.27-19-13.15-20.06c4.14-3.9,14.88,14.53,14.88,14.53s17.64-2.77,21.45-2.77
				s4.84,2.77,4.84,2.77s1.13,1.77,1.13,3.57s-2.16,3.35-2.16,3.35S238.03,181.97,234.86,180z"/>
			<path class="st5" d="M350.75,175.16L321,238.81l-42.21-49.82l-18.33,12.45c0,0,44.28,59.85,54.66,66.42s21.1-5.19,21.1-5.19
				l21.1-30.1L350.75,175.16z"/>
			<path class="st5" d="M391.58,163.4c0,0-40.82,8.99-40.82,11.76s2.42,49.12,5.88,64c3.46,14.88,4.15,21.1,4.84,25.95
				s-11.76,36.67-11.76,36.67h103.09c0,0-11.07-21.1-13.49-30.1c-2.42-8.99,24.56-83.72,24.91-87.18
				c0.35-3.46-34.59-14.88-40.82-15.91C417.18,167.55,391.58,163.4,391.58,163.4z"/>
			<path class="st6" d="M464.22,184.5c0,0,27.33,51.26,24.49,56.93c-2.83,5.67-11.33,4.96-17.71,1.42
				c-6.37-3.54-18.12-24.04-18.12-24.04L464.22,184.5z"/>
			<path class="st7" d="M382.24,201.8c4.15,30.1,19.72,51.89,19.72,51.89s23.87-60.54,23.87-76.45c0-3.31,0-5.96,0-8.11
				c-1.02-0.26-1.84-0.45-2.42-0.54c-6.23-1.04-31.83-5.19-31.83-5.19s-3.45,0.76-8.34,1.91
				C381.66,169.47,379.23,180.01,382.24,201.8z"/>
			<path class="st8" d="M401.26,176.89l-16.61,11.07c0,0-2.08-8.99-1.38-16.26c0.69-7.26,10.03-13.49,11.07-13.84
				c1.04-0.35,16.61,1.38,21.79,3.11c5.19,1.73,8.65,7.61,9.34,9.34c0.69,1.73-11.76,19.72-11.76,19.72L401.26,176.89z"/>
			<path class="st4" d="M390.88,128.11c0,0-0.69,33.9,0.69,38.05s7.61,12.8,10.38,12.8c2.77,0,15.22-14.53,15.22-14.53l4.15-21.79
				l-28.02-20.06C393.31,122.58,391.23,125,390.88,128.11z"/>
			<path class="st3" d="M388.11,88.31c0,0-2.42,32.28,1.21,39.54c3.63,7.26,16.54,26.63,24.61,23.4
				c8.07-3.23,23.4-18.16,28.25-28.25c4.84-10.09,13.32-19.77,11.3-34.3c-2.02-14.53-22.19-30.67-34.7-32.28
				C406.27,54.82,389.72,73.38,388.11,88.31z"/>
			<path class="st9" d="M425.13,106.49c0,0-2.62,6.98-2.62,11.92s-0.87,5.82-0.87,5.82l-7.56-2.91"/>
			<path class="st10" d="M419.32,131.2c0,0-8.14-2.33-12.5-6.4c-4.36-4.07-6.11-6.11-6.11-6.11s5.52,15.12,9.3,15.7
				C413.79,134.98,419.32,131.2,419.32,131.2z"/>
			<path class="st10" d="M407.67,104.58c-0.27,1.83-1.33,3.18-2.36,3.03c-1.03-0.15-1.65-1.76-1.38-3.58
				c0.27-1.83,1.33-3.18,2.36-3.03C407.32,101.15,407.94,102.76,407.67,104.58z"/>
			<path class="st10" d="M432.96,111.27c-0.27,1.83-1.33,3.18-2.36,3.03s-1.65-1.76-1.38-3.58c0.27-1.83,1.33-3.18,2.36-3.03
				S433.23,109.44,432.96,111.27z"/>
			<path class="st11" d="M400.71,93.7c0,0,6.98-2.33,13.08,0.87"/>
			<path class="st11" d="M429.2,98.64c0,0,8.72-0.58,11.63,6.69"/>
			<path class="st12" d="M431.24,48.34c0,0-4.65-4.94-19.19-2.04c-14.54,2.91-25.88,15.7-26.46,24.42
				c-0.5,7.53,1.74,13.37,1.74,13.37s5.52-15.7,18.32-22.1c12.79-6.4,23.84-10.18,25.29-10.47
				C432.4,51.25,431.24,48.34,431.24,48.34z"/>
			<path class="st2" d="M416.41,50.08c16.57-7.56,30.82-6.69,46.81,9.59s8.43,44.48,8.43,44.48s-13.96,0.58-31.69-8.72
				c-17.74-9.3-26.17-30.24-26.17-30.24s3.49,4.65-2.33,9.89c-5.82,5.23-17.74,9.89-19.48,12.5c-1.74,2.62-5.52,6.69-5.52,6.69
				s-0.58-14.25,3.78-25C394.6,58.52,416.41,50.08,416.41,50.08z"/>
			<path class="st3" d="M387.92,93.99c0,0-1.45-5.23-5.81-2.91c-4.36,2.33-4.36,14.25-1.16,19.48c3.2,5.23,6.69,3.78,6.69,3.78
				L387.92,93.99z"/>
			<g>
				
					<linearGradient id="SVGID_3_" gradientUnits="userSpaceOnUse" x1="425.315" y1="193.7811" x2="425.315" y2="186.9799" gradientTransform="matrix(0.1326 1.0203 -0.8597 0.9263 560.9 -479.5192)">
					<stop  offset="0" style="stop-color:#808080"/>
					<stop  offset="0.0147" style="stop-color:#727272"/>
					<stop  offset="0.0567" style="stop-color:#4F4F4F"/>
					<stop  offset="0.1013" style="stop-color:#323232"/>
					<stop  offset="0.1488" style="stop-color:#1C1C1C"/>
					<stop  offset="0.2004" style="stop-color:#0C0C0C"/>
					<stop  offset="0.2592" style="stop-color:#030303"/>
					<stop  offset="0.3406" style="stop-color:#000000"/>
					<stop  offset="0.6981" style="stop-color:#000000"/>
					<stop  offset="0.7455" style="stop-color:#050505"/>
					<stop  offset="0.8005" style="stop-color:#131313"/>
					<stop  offset="0.8595" style="stop-color:#2A2A2A"/>
					<stop  offset="0.9211" style="stop-color:#4B4B4B"/>
					<stop  offset="0.9841" style="stop-color:#747474"/>
					<stop  offset="1" style="stop-color:#808080"/>
				</linearGradient>
				<path class="st13" d="M450.72,134.06c0-0.16-0.13-0.43,0.08-0.65c0,0,5.54-5.97,5.54-5.97c0.22-0.26,0.3,0.46,0.09,0.67
					C456.2,128.22,450.82,134.44,450.72,134.06z"/>
				
					<linearGradient id="SVGID_4_" gradientUnits="userSpaceOnUse" x1="425.3079" y1="197.3445" x2="425.3079" y2="194.5561" gradientTransform="matrix(0.1326 1.0203 -0.8597 0.9263 560.9 -479.5192)">
					<stop  offset="0" style="stop-color:#808080"/>
					<stop  offset="0.0147" style="stop-color:#727272"/>
					<stop  offset="0.0567" style="stop-color:#4F4F4F"/>
					<stop  offset="0.1013" style="stop-color:#323232"/>
					<stop  offset="0.1488" style="stop-color:#1C1C1C"/>
					<stop  offset="0.2004" style="stop-color:#0C0C0C"/>
					<stop  offset="0.2592" style="stop-color:#030303"/>
					<stop  offset="0.3406" style="stop-color:#000000"/>
					<stop  offset="0.6981" style="stop-color:#000000"/>
					<stop  offset="0.7455" style="stop-color:#050505"/>
					<stop  offset="0.8005" style="stop-color:#131313"/>
					<stop  offset="0.8595" style="stop-color:#2A2A2A"/>
					<stop  offset="0.9211" style="stop-color:#4B4B4B"/>
					<stop  offset="0.9841" style="stop-color:#747474"/>
					<stop  offset="1" style="stop-color:#808080"/>
				</linearGradient>
				<path class="st14" d="M447.66,137.36c-0.01-0.16-0.12-0.44,0.08-0.65c0,0,2.1-2.26,2.1-2.26c0.2-0.23,0.18,0.2,0.21,0.33
					c0.16,0.24-2.14,2.42-2.22,2.59C447.75,137.46,447.67,137.45,447.66,137.36z"/>
				
					<linearGradient id="SVGID_5_" gradientUnits="userSpaceOnUse" x1="403.1037" y1="199.3326" x2="425.451" y2="199.3326" gradientTransform="matrix(0.3054 0.9397 -0.7758 0.8872 472.4353 -438.2674)">
					<stop  offset="0" style="stop-color:#333333"/>
					<stop  offset="9.490239e-04" style="stop-color:#323232"/>
					<stop  offset="0.0261" style="stop-color:#1C1C1C"/>
					<stop  offset="0.0534" style="stop-color:#0C0C0C"/>
					<stop  offset="0.0847" style="stop-color:#030303"/>
					<stop  offset="0.128" style="stop-color:#000000"/>
					<stop  offset="0.8865" style="stop-color:#000000"/>
					<stop  offset="0.9164" style="stop-color:#050505"/>
					<stop  offset="0.9513" style="stop-color:#131313"/>
					<stop  offset="0.9883" style="stop-color:#2A2A2A"/>
					<stop  offset="1" style="stop-color:#333333"/>
				</linearGradient>
				<path class="st15" d="M429,155.53l-4.79-14.74c-0.57-1.74,0.14-4.49,1.58-6.14l30.21-34.54c1.44-1.65,3.07-1.57,3.63,0.18
					l4.79,14.74c0.57,1.74-0.14,4.49-1.58,6.14l-30.21,34.54C431.19,157.36,429.56,157.28,429,155.53z"/>
				
					<linearGradient id="SVGID_6_" gradientUnits="userSpaceOnUse" x1="424.8043" y1="199.1382" x2="425.5857" y2="199.1382" gradientTransform="matrix(0.0511 0.9364 -0.8319 0.9153 590.2764 -442.0372)">
					<stop  offset="0" style="stop-color:#000000"/>
					<stop  offset="0.2062" style="stop-color:#050505"/>
					<stop  offset="0.4457" style="stop-color:#131313"/>
					<stop  offset="0.7018" style="stop-color:#2A2A2A"/>
					<stop  offset="0.9679" style="stop-color:#4B4B4B"/>
					<stop  offset="1" style="stop-color:#4F4F4F"/>
				</linearGradient>
				<path class="st16" d="M464.29,118.24c-0.4,1.01-35.5,39.62-35.97,39.58c0.51-0.08,1.15-0.49,1.83-1.24l32.39-35.63
					C463.22,120.19,463.83,119.23,464.29,118.24z"/>
				
					<linearGradient id="SVGID_7_" gradientUnits="userSpaceOnUse" x1="-1687.5734" y1="199.5074" x2="-1686.7919" y2="199.5074" gradientTransform="matrix(-0.1326 -1.0203 -0.8597 0.9263 390.6837 -1789.0406)">
					<stop  offset="0" style="stop-color:#000000"/>
					<stop  offset="0.2062" style="stop-color:#050505"/>
					<stop  offset="0.4457" style="stop-color:#131313"/>
					<stop  offset="0.7018" style="stop-color:#2A2A2A"/>
					<stop  offset="0.9679" style="stop-color:#4B4B4B"/>
					<stop  offset="1" style="stop-color:#4F4F4F"/>
				</linearGradient>
				<path class="st17" d="M461.55,97.51c-0.52-0.1-36.79,38.98-37.17,40.05c0.44-1.04,1.04-2.03,1.75-2.79l33.47-36.06
					C460.3,97.95,460.98,97.55,461.55,97.51z"/>
				
					<linearGradient id="SVGID_8_" gradientUnits="userSpaceOnUse" x1="410.569" y1="178.2888" x2="410.569" y2="179.6635" gradientTransform="matrix(0.1326 1.0203 -0.8597 0.9263 560.9 -479.5192)">
					<stop  offset="0" style="stop-color:#000000"/>
					<stop  offset="0.2062" style="stop-color:#050505"/>
					<stop  offset="0.4457" style="stop-color:#131313"/>
					<stop  offset="0.7018" style="stop-color:#2A2A2A"/>
					<stop  offset="0.9679" style="stop-color:#4B4B4B"/>
					<stop  offset="1" style="stop-color:#4F4F4F"/>
				</linearGradient>
				<path class="st18" d="M461.13,105.54c0.04,0.35,0.5-0.14,0.45-0.48C461.53,104.7,461.08,105.2,461.13,105.54z"/>
			</g>
			<path class="st4" d="M459.75,133.87c0,0-1.63-12.09-1.63-14.7s-3.92-3.27-4.25-0.33c-0.33,2.94,1.31,9.8,1.31,9.8L459.75,133.87z
				"/>
			<path class="st3" d="M444.85,122.92l1.04,14.53c0,0-16.95,17.99-15.91,22.83c1.04,4.84,13.15,24.91,13.15,24.91l9.34-5.19
				l-12.8-21.45c0,0,20.41-15.91,20.41-22.49c0-6.57-7.96-18.33-7.96-19.72C452.12,114.97,444.5,112.55,444.85,122.92z"/>
			<path class="st19" d="M446.36,117.54c0,0,3.27,12.41,4.25,16.66c0.98,4.25-0.98,6.86-0.98,6.86"/>
			<path class="st19" d="M449.95,115.9c0,0,5.23,15.35,5.55,17.64c0.33,2.29,0,4.9,0,4.9"/>
			<path class="st5" d="M453.15,170.66l-17.99,13.84c0,0,29.06,59.16,32.86,65.38c3.81,6.23,20.06,11.07,25.25-1.04
				c5.19-12.11-3.11-21.45-5.54-26.29C485.33,217.71,453.15,170.66,453.15,170.66z"/>
			<path class="st20" d="M154.37,218.07c0,0-0.32-8.31-3.83-14.06c-3.51-5.75-16.29-9.9-23-7.03c-6.71,2.87-9.9,4.79-9.9,4.79
				s9.9,2.87,18.85,8.94C145.43,216.79,154.37,218.07,154.37,218.07z"/>
			<path class="st20" d="M167.79,222.22c0,0-7.67-7.35-8.94-17.57c-1.28-10.22,9.58-26.19,9.58-26.19s5.43,9.9,8.62,21.4
				C180.25,211.36,167.79,222.22,167.79,222.22z"/>
			<path class="st20" d="M182.48,219.03c0,0-1.92-9.58,1.6-16.29c3.51-6.71,12.78-6.07,22.04-3.19c9.26,2.88,12.14,2.88,12.14,2.88
				s-10.86,7.35-20.12,11.18C188.87,217.43,182.48,219.03,182.48,219.03z"/>
			<path class="st6" d="M167.87,262.71c-0.46,0-0.83-0.37-0.83-0.83v-54.94c0-0.46,0.37-0.83,0.83-0.83c0.46,0,0.83,0.37,0.83,0.83
				v54.94C168.7,262.34,168.33,262.71,167.87,262.71z"/>
			<path class="st6" d="M171.71,262.71c-0.04,0-0.08,0-0.11-0.01c-0.45-0.06-0.77-0.48-0.7-0.93c0.16-1.14,4.02-37.47,17.12-52.49
				c0.3-0.34,0.82-0.38,1.17-0.08c0.34,0.3,0.38,0.82,0.08,1.17c-12.78,14.65-16.7,51.36-16.73,51.63
				C172.47,262.41,172.11,262.71,171.71,262.71z"/>
			<path class="st6" d="M164.04,262.07C164.04,262.07,164.03,262.07,164.04,262.07c-0.47-0.01-0.83-0.38-0.83-0.84
				c0-0.26,0.12-35.52-15.34-47.89c-0.36-0.29-0.41-0.81-0.13-1.16c0.29-0.35,0.8-0.41,1.16-0.13c16.1,12.88,15.98,48.1,15.96,49.2
				C164.86,261.7,164.49,262.07,164.04,262.07z"/>
			<path class="st6" d="M176.82,261.75c-0.07,0-0.14-0.01-0.21-0.03c-0.44-0.12-0.7-0.57-0.58-1.01c0.09-0.35,2.33-17.79,7.48-24.86
				c0.27-0.37,0.79-0.45,1.15-0.18c0.37,0.27,0.45,0.78,0.18,1.15c-4.96,6.82-7.2,24.24-7.22,24.32
				C177.52,261.51,177.18,261.75,176.82,261.75z"/>
			<path class="st20" d="M181.84,239.79c0,0-0.32-8.94,3.51-10.22s7.35,1.92,10.22,3.83c2.88,1.92,6.07,3.83,6.07,9.58
				s-2.24,16.29-2.24,16.29s-3.19-9.9-8.62-14.37C185.36,240.43,181.84,239.79,181.84,239.79z"/>
			<path class="st6" d="M158.29,262.07c-0.35,0-0.67-0.22-0.79-0.57c-0.02-0.08-2.56-17.07-8.35-21.64
				c-0.36-0.28-0.42-0.8-0.14-1.16c0.28-0.36,0.8-0.42,1.16-0.14c6.2,4.89,8.79,22.1,8.9,22.43c0.14,0.43-0.1,0.9-0.54,1.04
				C158.46,262.06,158.37,262.07,158.29,262.07z"/>
			<path class="st20" d="M154.37,242.66c0,0,1.28-5.75-1.92-9.9c-3.19-4.15-10.86-3.19-14.69,1.28c-3.83,4.47-9.26,17.89-9.26,17.89
				s7.67-6.07,16.61-6.07S154.37,242.66,154.37,242.66z"/>
			<path class="st2" d="M179.83,301.78h-25.5l-12.75-42.17h50.99L179.83,301.78z"/>
			<path class="st21" d="M427.75,295.95H297.57v5.83h130.18V295.95z"/>
			<path class="st21" d="M348.48,301.78H202.5l-14.21-97.56h145.99L348.48,301.78z"/>
			<path class="st22" d="M343.68,301.78H197.69l-14.21-97.56h145.99L343.68,301.78z"/>
			<path class="st21" d="M266.76,245.96c3.02,5.91,1.39,12.79-3.64,15.35s-11.55-0.15-14.56-6.07c-3.02-5.91-1.39-12.79,3.64-15.35
				C257.22,237.33,263.74,240.04,266.76,245.96z"/>
			<path class="st12" d="M253.52,122.35c24.22-15.11,31.61-46.98,16.5-71.2c-15.1-24.22-46.98-31.61-71.2-16.5
				c-24.22,15.1-31.61,46.98-16.5,71.2C197.42,130.07,229.3,137.46,253.52,122.35z"/>
			<path class="st7" d="M226.17,123.86c25.06,0,45.37-20.31,45.37-45.37c0-25.06-20.31-45.37-45.37-45.37S180.8,53.43,180.8,78.49
				C180.8,103.55,201.11,123.86,226.17,123.86z"/>
			<path class="st23" d="M241.53,91.69l-15.36-13.2l-33.11,20.9"/>
			<path class="st24" d="M230.51,78.49c0,2.4-1.94,4.34-4.34,4.34c-2.4,0-4.34-1.94-4.34-4.34s1.94-4.34,4.34-4.34
				C228.57,74.15,230.51,76.09,230.51,78.49z"/>
			<path class="st7" d="M362.17,59.85c0-12.99-16.57-23.52-37.02-23.52c-20.44,0-37.02,10.53-37.02,23.52s16.57,23.52,37.02,23.52
				c7.74,0,14.93-1.51,20.87-4.1l15.46,8.25l-4.84-15.3C360.14,68.62,362.17,64.39,362.17,59.85z"/>
			<path class="st6" d="M315.12,60.54c0-1.91-1.55-3.46-3.46-3.46s-3.46,1.55-3.46,3.46s1.55,3.46,3.46,3.46
				S315.12,62.45,315.12,60.54z"/>
			<path class="st6" d="M329.65,60.54c0-1.91-1.55-3.46-3.46-3.46s-3.46,1.55-3.46,3.46s1.55,3.46,3.46,3.46
				S329.65,62.45,329.65,60.54z"/>
			<path class="st6" d="M344.18,60.54c0-1.91-1.55-3.46-3.46-3.46s-3.46,1.55-3.46,3.46s1.55,3.46,3.46,3.46
				S344.18,62.45,344.18,60.54z"/>
		</g>
	</g>
</g>
</svg>
