<svg width="535" height="302" viewBox="0 0 535 302" fill="none" xmlns="http://www.w3.org/2000/svg">
<g clip-path="url(#clip0)">
<path d="M523.14 301.26H0.0799941C0.0799941 301.26 -4.53001 244.06 57.28 232.07C119.09 220.08 154.14 185.02 154.14 153.66C154.14 122.3 191.04 23.36 264.84 28.89C338.64 34.43 335.79 42.45 372.77 15.97C409.75 -10.5 483.65 -5.29 511.15 40.88C560.04 122.98 491.78 160.11 509.3 185.02C526.83 209.93 533.29 240.37 534.21 259.74C535.13 279.12 523.14 301.26 523.14 301.26Z" fill="#EBFFFD"/>
<path d="M430.08 46.66C430.08 46.66 419.03 40.85 403.91 43.46C388.79 46.08 380.07 56.54 380.07 66.43C380.07 76.32 376.58 85.04 372.51 93.18C368.44 101.32 352.45 112.95 352.45 112.95C352.45 112.95 359.14 134.46 382.4 141.44C405.66 148.42 428.05 145.51 439.68 143.77C451.31 142.03 469.92 132.14 469.92 132.14C469.92 132.14 458.29 119.93 455.09 100.16C451.89 80.39 448.4 61.2 443.75 55.97C439.09 50.73 430.08 46.66 430.08 46.66Z" fill="#9F2335"/>
<path d="M278.33 191.59C278.33 191.59 271.41 174.64 268.99 170.14C266.57 165.64 259.3 163.22 256.19 162.18C253.08 161.14 242.35 152.49 240.97 150.42C239.59 148.34 236.82 152.84 240.62 156.3C244.43 159.76 249.96 164.6 249.96 164.6L229.2 166.68C229.2 166.68 213.98 158.38 215.02 162.18C216.06 165.99 226.09 178.44 232.32 179.48C238.55 180.52 260.69 180.86 260.69 180.86L269.68 199.19L278.33 191.59Z" fill="#FFB380"/>
<path d="M239.06 173.03C242.69 172.11 253.87 169.44 253.87 169.44L249.96 164.61L229.2 166.69C229.2 166.69 213.98 158.39 215.02 162.19C216.06 166 226.09 178.45 232.32 179.49C233.42 179.67 235.02 179.83 236.9 179.98C236.65 177.38 236.72 173.62 239.06 173.03Z" fill="#DD926F"/>
<path d="M233.7 179.48C233.7 179.48 219.43 160.48 220.55 159.42C224.69 155.52 235.43 173.95 235.43 173.95C235.43 173.95 253.07 171.18 256.88 171.18C260.69 171.18 261.72 173.95 261.72 173.95C261.72 173.95 262.85 175.72 262.85 177.52C262.85 179.32 260.69 180.87 260.69 180.87C260.69 180.87 236.87 181.45 233.7 179.48Z" fill="#FFB380"/>
<path d="M349.59 174.64L319.84 238.29L277.63 188.47L259.3 200.92C259.3 200.92 303.58 260.77 313.96 267.34C324.34 273.91 335.06 262.15 335.06 262.15L356.16 232.05L349.59 174.64Z" fill="#01414A"/>
<path d="M390.42 162.88C390.42 162.88 349.6 171.87 349.6 174.64C349.6 177.41 352.02 223.76 355.48 238.64C358.94 253.52 359.63 259.74 360.32 264.59C361.01 269.44 348.56 301.26 348.56 301.26H451.65C451.65 301.26 440.58 280.16 438.16 271.16C435.74 262.17 462.72 187.44 463.07 183.98C463.42 180.52 428.48 169.1 422.25 168.07C416.02 167.03 390.42 162.88 390.42 162.88Z" fill="#01414A"/>
<path d="M463.06 183.98C463.06 183.98 490.39 235.24 487.55 240.91C484.72 246.58 476.22 245.87 469.84 242.33C463.47 238.79 451.72 218.29 451.72 218.29L463.06 183.98Z" fill="#373463"/>
<path d="M381.08 201.28C385.23 231.38 400.8 253.17 400.8 253.17C400.8 253.17 424.67 192.63 424.67 176.72C424.67 173.41 424.67 170.76 424.67 168.61C423.65 168.35 422.83 168.16 422.25 168.07C416.02 167.03 390.42 162.88 390.42 162.88C390.42 162.88 386.97 163.64 382.08 164.79C380.5 168.95 378.07 179.49 381.08 201.28Z" fill="white"/>
<path d="M400.1 176.37L383.49 187.44C383.49 187.44 381.41 178.45 382.11 171.18C382.8 163.92 392.14 157.69 393.18 157.34C394.22 156.99 409.79 158.72 414.97 160.45C420.16 162.18 423.62 168.06 424.31 169.79C425 171.52 412.55 189.51 412.55 189.51L400.1 176.37Z" fill="#E2E3EF"/>
<path d="M389.72 127.59C389.72 127.59 389.03 161.49 390.41 165.64C391.79 169.79 398.02 178.44 400.79 178.44C403.56 178.44 416.01 163.91 416.01 163.91L420.16 142.12L392.14 122.06C392.15 122.06 390.07 124.48 389.72 127.59Z" fill="#DD926F"/>
<path d="M386.95 87.79C386.95 87.79 384.53 120.07 388.16 127.33C391.79 134.59 404.7 153.96 412.77 150.73C420.84 147.5 436.17 132.57 441.02 122.48C445.86 112.39 454.34 102.71 452.32 88.18C450.3 73.65 430.13 57.51 417.62 55.9C405.11 54.3 388.56 72.86 386.95 87.79Z" fill="#FFB380"/>
<path d="M423.97 105.97C423.97 105.97 421.35 112.95 421.35 117.89C421.35 122.83 420.48 123.71 420.48 123.71L412.92 120.8" stroke="#603B4F" stroke-miterlimit="10"/>
<path d="M418.16 130.68C418.16 130.68 410.02 128.35 405.66 124.28C401.3 120.21 399.55 118.17 399.55 118.17C399.55 118.17 405.07 133.29 408.85 133.87C412.63 134.46 418.16 130.68 418.16 130.68Z" fill="#603B4F"/>
<path d="M406.51 104.06C406.24 105.89 405.18 107.24 404.15 107.09C403.12 106.94 402.5 105.33 402.77 103.51C403.04 101.68 404.1 100.33 405.13 100.48C406.16 100.63 406.78 102.24 406.51 104.06Z" fill="#603B4F"/>
<path d="M431.8 110.75C431.53 112.58 430.47 113.93 429.44 113.78C428.41 113.63 427.79 112.02 428.06 110.2C428.33 108.37 429.39 107.02 430.42 107.17C431.45 107.32 432.07 108.92 431.8 110.75Z" fill="#603B4F"/>
<path d="M399.55 93.18C399.55 93.18 406.53 90.85 412.63 94.05" stroke="#603B4F" stroke-width="2" stroke-miterlimit="10" stroke-linecap="round"/>
<path d="M428.04 98.12C428.04 98.12 436.76 97.54 439.67 104.81" stroke="#603B4F" stroke-width="2" stroke-miterlimit="10" stroke-linecap="round"/>
<path d="M430.08 47.82C430.08 47.82 425.43 42.88 410.89 45.78C396.35 48.69 385.01 61.48 384.43 70.2C383.93 77.73 386.17 83.57 386.17 83.57C386.17 83.57 391.69 67.87 404.49 61.47C417.28 55.07 428.33 51.29 429.78 51C431.24 50.73 430.08 47.82 430.08 47.82Z" fill="#34CCE0"/>
<path d="M415.25 49.56C431.82 42 446.07 42.87 462.06 59.15C478.05 75.43 470.49 103.63 470.49 103.63C470.49 103.63 456.53 104.21 438.8 94.91C421.06 85.61 412.63 64.67 412.63 64.67C412.63 64.67 416.12 69.32 410.3 74.56C404.48 79.79 392.56 84.45 390.82 87.06C389.08 89.68 385.3 93.75 385.3 93.75C385.3 93.75 384.72 79.5 389.08 68.75C393.44 58 415.25 49.56 415.25 49.56Z" fill="#9F2335"/>
<path d="M386.76 93.47C386.76 93.47 385.31 88.24 380.95 90.56C376.59 92.89 376.59 104.81 379.79 110.04C382.99 115.27 386.48 113.82 386.48 113.82L386.76 93.47Z" fill="#FFB380"/>
<path d="M458.59 133.35C458.59 133.35 456.96 121.26 456.96 118.65C456.96 116.04 453.04 115.38 452.71 118.32C452.38 121.26 454.02 128.12 454.02 128.12L458.59 133.35Z" fill="#DD926F"/>
<path d="M443.69 122.4L444.73 136.93C444.73 136.93 427.78 154.92 428.82 159.76C429.86 164.6 441.97 184.67 441.97 184.67L451.31 179.48L438.51 158.03C438.51 158.03 458.92 142.12 458.92 135.54C458.92 128.97 450.96 117.21 450.96 115.82C450.96 114.45 443.34 112.03 443.69 122.4Z" fill="#FFB380"/>
<path d="M445.2 117.02C445.2 117.02 448.47 129.43 449.45 133.68C450.43 137.93 448.47 140.54 448.47 140.54" stroke="#603B4F" stroke-width="0.5" stroke-miterlimit="10"/>
<path d="M448.79 115.38C448.79 115.38 454.02 130.73 454.34 133.02C454.67 135.31 454.34 137.92 454.34 137.92" stroke="#603B4F" stroke-width="0.5" stroke-miterlimit="10"/>
<path d="M451.99 170.14L434 183.98C434 183.98 463.06 243.14 466.86 249.36C470.67 255.59 486.92 260.43 492.11 248.32C497.3 236.21 489 226.87 486.57 222.03C484.17 217.19 451.99 170.14 451.99 170.14Z" fill="#01414A"/>
<path d="M153.21 217.55C153.21 217.55 152.89 209.24 149.38 203.49C145.87 197.74 133.09 193.59 126.38 196.46C119.67 199.33 116.48 201.25 116.48 201.25C116.48 201.25 126.38 204.12 135.33 210.19C144.27 216.27 153.21 217.55 153.21 217.55Z" fill="#11E56E"/>
<path d="M166.63 221.7C166.63 221.7 158.96 214.35 157.69 204.13C156.41 193.91 167.27 177.94 167.27 177.94C167.27 177.94 172.7 187.84 175.89 199.34C179.09 210.84 166.63 221.7 166.63 221.7Z" fill="#11E56E"/>
<path d="M181.32 218.51C181.32 218.51 179.4 208.93 182.92 202.22C186.43 195.51 195.7 196.15 204.96 199.03C214.22 201.91 217.1 201.91 217.1 201.91C217.1 201.91 206.24 209.26 196.98 213.09C187.71 216.91 181.32 218.51 181.32 218.51Z" fill="#11E56E"/>
<path d="M166.71 262.19C166.25 262.19 165.88 261.82 165.88 261.36V206.42C165.88 205.96 166.25 205.59 166.71 205.59C167.17 205.59 167.54 205.96 167.54 206.42V261.36C167.54 261.82 167.17 262.19 166.71 262.19Z" fill="#373463"/>
<path d="M170.55 262.19C170.51 262.19 170.47 262.19 170.44 262.18C169.99 262.12 169.67 261.7 169.74 261.25C169.9 260.11 173.76 223.78 186.86 208.76C187.16 208.42 187.68 208.38 188.03 208.68C188.37 208.98 188.41 209.5 188.11 209.85C175.33 224.5 171.41 261.21 171.38 261.48C171.31 261.89 170.95 262.19 170.55 262.19Z" fill="#373463"/>
<path d="M162.88 261.55C162.88 261.55 162.87 261.55 162.88 261.55C162.41 261.54 162.05 261.17 162.05 260.71C162.05 260.45 162.17 225.19 146.71 212.82C146.35 212.53 146.3 212.01 146.58 211.66C146.87 211.31 147.38 211.25 147.74 211.53C163.84 224.41 163.72 259.63 163.7 260.73C163.7 261.18 163.33 261.55 162.88 261.55Z" fill="#373463"/>
<path d="M175.66 261.23C175.59 261.23 175.52 261.22 175.45 261.2C175.01 261.08 174.75 260.63 174.87 260.19C174.96 259.84 177.2 242.4 182.35 235.33C182.62 234.96 183.14 234.88 183.5 235.15C183.87 235.42 183.95 235.93 183.68 236.3C178.72 243.12 176.48 260.54 176.46 260.62C176.36 260.99 176.02 261.23 175.66 261.23Z" fill="#373463"/>
<path d="M180.68 239.27C180.68 239.27 180.36 230.33 184.19 229.05C188.02 227.77 191.54 230.97 194.41 232.88C197.29 234.8 200.48 236.71 200.48 242.46C200.48 248.21 198.24 258.75 198.24 258.75C198.24 258.75 195.05 248.85 189.62 244.38C184.2 239.91 180.68 239.27 180.68 239.27Z" fill="#11E56E"/>
<path d="M157.13 261.55C156.78 261.55 156.46 261.33 156.34 260.98C156.32 260.9 153.78 243.91 147.99 239.34C147.63 239.06 147.57 238.54 147.85 238.18C148.13 237.82 148.65 237.76 149.01 238.04C155.21 242.93 157.8 260.14 157.91 260.47C158.05 260.9 157.81 261.37 157.37 261.51C157.3 261.54 157.21 261.55 157.13 261.55Z" fill="#373463"/>
<path d="M153.21 242.14C153.21 242.14 154.49 236.39 151.29 232.24C148.1 228.09 140.43 229.05 136.6 233.52C132.77 237.99 127.34 251.41 127.34 251.41C127.34 251.41 135.01 245.34 143.95 245.34C152.89 245.34 153.21 242.14 153.21 242.14Z" fill="#11E56E"/>
<path d="M178.67 301.26H153.17L140.42 259.09H191.41L178.67 301.26Z" fill="#9F2335"/>
<path d="M426.59 295.43H296.41V301.26H426.59V295.43Z" fill="#E3E3CE"/>
<path d="M347.32 301.26H201.34L187.13 203.7H333.12L347.32 301.26Z" fill="#E3E3CE"/>
<path d="M342.52 301.26H196.53L182.32 203.7H328.31L342.52 301.26Z" fill="#117F8E"/>
<path d="M265.6 245.44C268.62 251.35 266.99 258.23 261.96 260.79C256.93 263.35 250.41 260.64 247.4 254.72C244.38 248.81 246.01 241.93 251.04 239.37C256.06 236.81 262.58 239.52 265.6 245.44Z" fill="#E3E3CE"/>
<path d="M252.362 121.833C276.58 106.728 283.968 74.8513 268.863 50.6334C253.759 26.4154 221.882 19.0275 197.664 34.132C173.446 49.2364 166.058 81.1135 181.162 105.331C196.267 129.549 228.144 136.937 252.362 121.833Z" fill="#34CCE0"/>
<path d="M225.01 123.34C250.067 123.34 270.38 103.027 270.38 77.97C270.38 52.9128 250.067 32.6 225.01 32.6C199.953 32.6 179.64 52.9128 179.64 77.97C179.64 103.027 199.953 123.34 225.01 123.34Z" fill="white"/>
<path d="M240.37 91.17L225.01 77.97L191.9 98.87" stroke="#373463" stroke-width="2" stroke-miterlimit="10"/>
<path d="M229.35 77.97C229.35 80.37 227.41 82.31 225.01 82.31C222.61 82.31 220.67 80.37 220.67 77.97C220.67 75.57 222.61 73.63 225.01 73.63C227.41 73.63 229.35 75.57 229.35 77.97Z" fill="#0DC9AB"/>
<path d="M361.01 59.33C361.01 46.34 344.44 35.81 323.99 35.81C303.55 35.81 286.97 46.34 286.97 59.33C286.97 72.32 303.54 82.85 323.99 82.85C331.73 82.85 338.92 81.34 344.86 78.75L360.32 87L355.48 71.7C358.98 68.1 361.01 63.87 361.01 59.33Z" fill="white"/>
<path d="M313.96 60.02C313.96 58.11 312.41 56.56 310.5 56.56C308.59 56.56 307.04 58.11 307.04 60.02C307.04 61.93 308.59 63.48 310.5 63.48C312.41 63.48 313.96 61.93 313.96 60.02Z" fill="#373463"/>
<path d="M328.49 60.02C328.49 58.11 326.94 56.56 325.03 56.56C323.12 56.56 321.57 58.11 321.57 60.02C321.57 61.93 323.12 63.48 325.03 63.48C326.94 63.48 328.49 61.93 328.49 60.02Z" fill="#373463"/>
<path d="M343.02 60.02C343.02 58.11 341.47 56.56 339.56 56.56C337.65 56.56 336.1 58.11 336.1 60.02C336.1 61.93 337.65 63.48 339.56 63.48C341.47 63.48 343.02 61.93 343.02 60.02Z" fill="#373463"/>
</g>
<defs>
<clipPath id="clip0">
<rect width="534.26" height="301.26" fill="white"/>
</clipPath>
</defs>
</svg>
