<svg width="480" height="299" viewBox="0 0 480 299" fill="none" xmlns="http://www.w3.org/2000/svg">
<path d="M416.284 293.789C416.284 293.789 506 226.5 471 129.5C436 32.5 311.819 -22.0599 241.5 8.50001C171.181 39.0599 134.991 87.9289 57.7549 143.864C-19.4816 199.8 -1.61122 244.2 12.2194 266.689C26.054 289.178 28.3584 294.944 28.3584 294.944L416.284 293.789Z" fill="#E9F5FF"/>
<path d="M328.675 89.194C311.692 74.0594 299.219 83.086 289.93 93.1758C282.527 101.219 281.492 102.999 275.375 111.333C274.467 112.571 273.767 113.945 273.739 115.478C273.568 124.687 268.855 163.637 274.093 177.075C280.198 192.739 355.481 199.906 355.481 199.906L328.675 89.194Z" fill="#303C60"/>
<path d="M280.461 185.994C280.871 185.994 281.213 185.672 281.237 185.258C281.257 184.832 280.931 184.465 280.501 184.445C278.268 184.334 276.449 183.326 274.941 181.375C266.499 170.434 271.247 133.909 275.383 114.048C275.47 113.63 275.199 113.216 274.782 113.128C274.364 113.041 273.95 113.311 273.862 113.73C272.959 118.066 269.938 133.463 268.999 149.498C268.031 165.966 269.615 177.011 273.715 182.323C275.49 184.624 277.747 185.863 280.425 185.998C280.433 185.994 280.449 185.994 280.461 185.994Z" fill="#303C60"/>
<path d="M322.303 84.6788C354.947 102.732 335.043 163.8 376.444 185.568C387.914 191.6 423.153 222.208 400.061 262.563C384.957 288.962 339.819 283.272 324.958 259.907C310.096 236.546 322.303 84.6788 322.303 84.6788Z" fill="#303C60"/>
<path d="M409.175 223.518C409.211 223.518 409.243 223.514 409.279 223.51C409.705 223.454 410.003 223.064 409.944 222.638C409.916 222.423 409.203 217.283 405.948 210.47C402.947 204.191 397.124 195.276 386.414 188.455C367.258 176.259 354.541 164.768 339.509 108.107C339.397 107.693 338.972 107.446 338.562 107.558C338.148 107.669 337.901 108.091 338.012 108.506C345.276 135.884 352.48 154.391 360.683 166.75C368.296 178.23 376.133 183.745 385.586 189.761C405.486 202.431 408.383 222.634 408.411 222.837C408.459 223.231 408.789 223.518 409.175 223.518Z" fill="#303C60"/>
<path d="M408.459 207.703C408.602 207.703 408.745 207.663 408.873 207.583C409.235 207.356 409.342 206.874 409.116 206.512C404.383 199.014 398.354 192.867 391.197 188.236C364.296 170.832 359.843 160.826 337.626 103.512C337.471 103.114 337.021 102.915 336.623 103.07C336.225 103.226 336.026 103.676 336.181 104.074C347.29 132.726 353.928 149.517 361.192 161.419C368.993 174.2 377.793 181.407 390.358 189.538C397.323 194.045 403.197 200.034 407.806 207.34C407.949 207.575 408.204 207.703 408.459 207.703Z" fill="#303C60"/>
<path d="M323.429 122.788C334.669 146.141 332.938 167.332 332.938 167.332C332.938 167.332 331.64 175.55 326.454 177.278C321.268 179.006 313.917 173.818 314.351 166.898C314.785 159.977 312.624 143.115 310.029 137.059C307.438 131.002 323.429 122.788 323.429 122.788Z" fill="#F09959"/>
<path d="M382.812 285.044C382.103 291.415 383.695 290.885 378.035 291.948C372.376 293.012 362.29 289.117 362.29 289.117L373.614 268.054L382.812 285.044Z" fill="#6791C9"/>
<path d="M331.585 154.789C334.769 165.142 358.653 157.178 367.011 159.567C375.369 161.956 382.537 197 383.731 228.463C384.925 259.927 383.333 285.012 380.149 288.994C376.965 292.976 324.421 294.568 319.644 292.976C314.868 291.383 359.449 271.47 359.449 271.47C359.449 271.47 362.235 234.834 358.653 216.116C355.071 197.398 322.829 172.707 322.829 172.707L331.585 154.789Z" fill="#F09959"/>
<path d="M320.441 157.975C312.082 170.716 290.188 169.124 282.626 179.48C275.064 189.833 259.14 246.783 259.14 246.783L242.42 189.04C242.42 189.04 228.86 186.763 233.266 196.207C241.099 213.01 244.016 267.214 252.509 274.914C261.954 283.475 271.351 276.507 276.656 261.516C281.786 247.014 294.57 215.718 303.724 203.773C312.878 191.827 322.833 172.711 322.833 172.711L320.441 157.975Z" fill="#F09959"/>
<path d="M356.663 159.567C339.943 179.082 307.302 178.286 300.138 175.897C292.974 173.507 292.974 173.507 292.974 173.507C292.974 173.507 287.402 171.517 282.626 177.091C277.85 182.665 266.304 217.713 264.314 225.676C262.324 233.64 259.14 246.784 259.14 246.784C259.14 246.784 267.681 257.036 267.681 267.393C267.681 277.746 264.055 277.837 264.055 277.837C264.055 277.837 274.666 275.456 277.054 269.085C279.442 262.714 300.938 204.967 300.938 204.967L360.249 206.162L359.453 271.474C359.453 271.474 364.627 266.696 371.791 271.474C378.955 276.252 381.343 287.405 380.149 288.998C378.955 290.591 382.537 290.591 382.537 289.396C382.537 288.202 389.303 259.131 384.527 211.342C379.751 163.553 370.597 158.377 365.419 157.979C360.245 157.577 356.663 159.567 356.663 159.567Z" fill="#75A1DE"/>
<path d="M266.479 277.009C266.368 277.045 266.3 277.049 266.3 277.049C266.3 277.049 266.368 277.033 266.479 277.009Z" fill="#6791C9"/>
<path d="M264.183 248.229C267.633 249.292 273.472 261.504 273.472 261.504C273.472 261.504 286.741 232.565 290.722 192.473L295.458 219.672C288.919 237.235 278.658 264.793 277.05 269.081C274.865 274.911 266.053 277.343 264.847 277.61C265.178 277.499 265.906 277.057 266.511 275.309C266.861 274.99 268.851 274.058 269.225 273.716C272.409 270.797 271.084 263.893 268.959 256.192C266.837 248.496 260.732 247.166 264.183 248.229Z" fill="#6791C9"/>
<path d="M357.391 206.102L363.97 176.012C371.134 186.102 371.93 220.615 369.013 244.247C366.617 263.626 363.039 268.655 360.575 270.674C359.847 271.104 359.449 271.47 359.449 271.47L360.245 206.158L357.391 206.102Z" fill="#6791C9"/>
<path d="M376.444 175.745C364.237 208.666 370.338 215.304 354.275 253.947C345.304 275.528 328.003 291.781 328.003 291.781C328.003 291.781 314.069 295.365 296.556 294.17C279.04 292.976 266.221 291.773 266.221 291.773C266.221 291.773 284.616 280.632 285.412 273.067C286.208 265.502 289.663 235.487 285.154 214.249C281.631 197.661 296.162 181.077 296.162 181.077L320.445 179.882L376.444 175.745Z" fill="#75A1DE"/>
<path opacity="0.5" d="M354.947 226.194C357.069 218.493 345.925 228.583 327.613 230.442C309.3 232.302 288.867 229.379 298.948 232.565C309.034 235.75 336.635 230.972 331.593 241.062C325.658 252.935 318.65 264.427 308.504 271.331C301.87 275.846 285.946 280.091 301.34 277.702C316.731 275.313 333.189 257.259 340.353 245.577C347.517 233.891 354.474 227.91 354.947 226.194Z" fill="#6791C9"/>
<path d="M314.399 163.864C314.236 155.916 312.301 142.35 310.033 137.055C308.174 132.718 315.855 127.271 320.365 124.528L324.178 124.365C324.759 125.631 325.304 126.889 325.81 128.139C329.833 154.57 317.79 165.492 312.047 167.69C309.567 168.638 306.789 168.745 304.413 168.53C307.955 167.272 311.414 165.835 314.399 163.864Z" fill="#E38540"/>
<path d="M321.69 175.618C323.071 175.618 324.504 175.451 325.929 175.104C329.248 174.296 337.173 171.214 339.015 160.157C339.055 159.918 338.892 159.691 338.653 159.651C338.414 159.611 338.187 159.774 338.148 160.013C336.392 170.557 328.87 173.484 325.718 174.252C320.823 175.447 315.625 174.34 313.631 171.68C312.031 169.546 312.99 165.002 313.002 164.959C313.054 164.72 312.902 164.489 312.667 164.437C312.433 164.385 312.198 164.537 312.146 164.776C312.102 164.979 311.091 169.757 312.93 172.213C314.562 174.379 317.925 175.618 321.69 175.618Z" fill="#F5CE5C"/>
<path d="M284.23 133.176C286.929 147.443 293.165 158.95 303.72 156.78C314.275 154.61 325.368 139.543 322.446 125.324C319.525 111.102 308.604 101.334 298.049 103.5C287.498 105.666 280.632 114.168 284.23 133.176Z" fill="#F09959"/>
<path d="M246.667 203.625C246.667 203.625 266.173 256.061 267.1 261.504C268.027 266.947 266.173 270.399 265.639 270.399C265.11 270.399 248.521 241.989 248.521 241.989L246.667 203.625Z" fill="#F09959"/>
<path d="M245.871 201.324C244.279 196.012 246.754 189.287 246.754 189.287L239.678 190.171L245.871 201.324Z" fill="#F09959"/>
<path d="M238.098 192.265H257.846C259.044 192.265 259.904 191.111 259.562 189.96L247.096 148.144C246.87 147.383 246.173 146.866 245.381 146.866H225.632C224.434 146.866 223.574 148.02 223.917 149.171L236.382 190.983C236.605 191.748 237.306 192.265 238.098 192.265Z" fill="#4381DB"/>
<path d="M235.618 192.265H255.367C256.565 192.265 257.425 191.111 257.082 189.96L244.617 148.144C244.39 147.383 243.694 146.866 242.902 146.866H223.157C221.959 146.866 221.099 148.02 221.441 149.171L233.907 190.983C234.13 191.748 234.826 192.265 235.618 192.265Z" fill="#2E5B9A"/>
<path d="M249.914 161.956C252.02 169.546 253.437 175.777 253.078 175.877C252.72 175.976 250.726 169.904 248.621 162.315C246.515 154.726 245.098 148.494 245.457 148.395C245.815 148.299 247.809 154.371 249.914 161.956Z" fill="#9CBEED"/>
<path d="M236.494 204.688C235.909 197.792 229.939 191.33 227.67 189.267C226.977 188.642 226.591 187.75 226.599 186.818C226.631 183.382 226.786 175.267 227.495 174.32C228.398 173.113 230.663 157.577 231.718 158.182C232.772 158.783 231.415 172.361 231.415 172.361C231.415 172.361 233.978 171.154 235.335 170.553C236.693 169.948 242.273 176.135 242.273 176.135C242.273 176.135 244.888 182.745 237.735 179.914C229.242 176.55 235.614 185.93 241.274 191.951C245.938 196.908 241.97 198.007 241.97 198.007L238.201 197.856L236.494 204.688Z" fill="#F09959"/>
<path d="M238.635 210.112C239.26 210.112 239.968 210.016 240.681 209.793C242.515 209.22 245.723 207.372 246.571 201.431C246.607 201.193 246.44 200.97 246.197 200.934C245.954 200.902 245.735 201.065 245.699 201.308C244.975 206.389 242.511 208.244 240.573 208.905C238.989 209.447 237.68 209.196 237.349 209.013C237.33 208.861 237.23 208.726 237.079 208.662C236.852 208.571 236.597 208.682 236.506 208.909C236.418 209.132 236.47 209.379 236.645 209.57C236.955 209.897 237.704 210.112 238.635 210.112Z" fill="#F5CE5C"/>
<path d="M239.375 208.403C239.96 208.403 240.573 208.36 241.154 208.276C244.565 207.778 246.854 206.046 247.427 203.522C247.482 203.287 247.331 203.048 247.096 202.996C246.858 202.945 246.623 203.092 246.571 203.327C246.022 205.736 243.833 206.759 242.093 207.193C239.654 207.802 237.365 207.428 237.091 207.109C236.971 206.898 236.708 206.827 236.494 206.946C236.283 207.066 236.211 207.34 236.33 207.551C236.661 208.141 237.942 208.403 239.375 208.403Z" fill="#F5CE5C"/>
<path d="M296.345 140.598C296.56 140.598 296.779 140.582 296.994 140.551C300.341 140.037 302.367 135.717 301.599 130.712C301.245 128.39 300.321 126.284 299.008 124.783C297.607 123.186 295.924 122.446 294.26 122.7C290.913 123.214 288.887 127.534 289.655 132.539C290.371 137.218 293.237 140.598 296.345 140.598ZM294.897 124.202C295.896 124.202 296.926 124.759 297.842 125.802C298.964 127.084 299.752 128.908 300.067 130.943C300.68 134.948 299.167 138.643 296.759 139.014C294.355 139.384 291.804 136.31 291.191 132.304C290.578 128.299 292.091 124.604 294.499 124.233C294.63 124.213 294.761 124.202 294.897 124.202Z" fill="white"/>
<path d="M285.305 140.618C285.412 140.618 285.516 140.61 285.623 140.594C287.816 140.26 289.006 136.541 288.33 132.133C287.653 127.725 285.404 124.528 283.215 124.87C282.085 125.042 281.197 126.077 280.712 127.785C280.27 129.334 280.198 131.305 280.509 133.332C281.15 137.528 283.215 140.618 285.305 140.618ZM283.542 126.025C284.835 126.025 286.59 128.514 287.171 132.316C287.776 136.266 286.746 139.241 285.444 139.44C284.135 139.631 282.272 137.11 281.667 133.16C281.38 131.297 281.444 129.505 281.838 128.112C282.184 126.893 282.754 126.137 283.39 126.037C283.442 126.029 283.49 126.025 283.542 126.025Z" fill="white"/>
<path d="M300.011 127.407C300.083 127.407 300.154 127.399 300.226 127.375L326.235 119.941C326.649 119.822 326.884 119.392 326.769 118.981C326.653 118.567 326.223 118.332 325.81 118.448L299.8 125.882C299.386 126.001 299.151 126.431 299.267 126.841C299.362 127.184 299.673 127.407 300.011 127.407Z" fill="white"/>
<path d="M281.436 111.229C321.686 134.948 323.899 119.017 323.899 119.017L321.511 96.3612L297.627 97.6871L281.436 111.229Z" fill="#303C60"/>
<path d="M320.783 124.281C319.848 128.291 321.125 132.018 323.641 132.603C326.156 133.192 328.95 130.417 329.889 126.407C330.824 122.398 329.547 118.671 327.031 118.082C324.516 117.496 321.718 120.272 320.783 124.281Z" fill="#F09959"/>
<path d="M323.541 129.549C323.541 130.425 324.249 131.134 325.125 131.134C326.001 131.134 326.709 130.425 326.709 129.549C326.709 128.673 326.001 127.964 325.125 127.964C324.249 127.96 323.541 128.673 323.541 129.549Z" fill="#F5CE5C"/>
<path d="M13.0268 299H415.659C417.697 299 419.348 297.348 419.348 295.309C419.348 293.27 417.697 291.618 415.659 291.618H13.0268C10.989 291.618 9.33727 293.27 9.33727 295.309C9.33727 297.344 10.989 299 13.0268 299Z" fill="#2E5B9A"/>
<path d="M320.218 290.905C320.218 290.905 335.398 291.096 335.589 292.442C335.78 293.788 335.011 294.365 329.634 295.325C324.253 296.284 263.733 296.671 263.156 296.284C262.579 295.902 244.904 291.67 244.904 291.67L287.366 290.905H320.218Z" fill="#DBE5EB"/>
<path d="M311.955 280.799C311.955 280.799 301.074 276.021 297.89 278.144C294.706 280.266 285.504 290.005 285.504 290.005L311.955 280.799Z" fill="#F09959"/>
<path d="M286.105 290.869C286.312 291.128 286.618 291.236 286.793 291.108L309.181 274.433C310.387 273.533 310.96 272.159 310.379 271.434C309.798 270.71 308.333 270.969 307.191 271.948L286.017 290.145C285.858 290.284 285.898 290.611 286.105 290.869Z" fill="#2E5B9A"/>
<path d="M344.862 278.761C344.862 278.761 326.816 285.928 324.691 285.928C322.57 285.928 310.713 277.964 306.733 279.024C302.753 280.087 283.291 289.91 283.82 290.706C284.349 291.502 289.926 293.362 306.379 292.828C322.832 292.299 349.638 289.91 349.638 289.91L344.862 278.761Z" fill="#F09959"/>
<path d="M104.956 43.7146H164.613C166.515 43.7146 167.506 42.1577 166.814 40.2544L157.795 15.4601C157.102 13.5569 154.981 12 153.079 12H93.4219C91.5195 12 90.5285 13.5569 91.221 15.4601L100.244 40.2544C100.932 42.1577 103.058 43.7146 104.956 43.7146Z" fill="#9EC8FF"/>
<path d="M106.982 41.1225H160.704C162.352 41.1225 163.208 39.7727 162.611 38.1242L155.14 17.5904C154.539 15.9419 152.705 14.5921 151.057 14.5921H97.3342C95.6865 14.5921 94.8308 15.9419 95.4278 17.5904L102.898 38.1242C103.495 39.7727 105.334 41.1225 106.982 41.1225Z" fill="white"/>
<path d="M140.94 42.2732C145.887 55.3452 153.505 59.3787 153.505 59.3787C153.505 59.3787 148.088 51.8811 148.872 48.2299C149.656 44.5786 152.557 43.0377 152.557 43.0377L140.94 42.2732Z" fill="#9EC8FF"/>
<path d="M102.664 21.8986H137.294C137.863 21.8986 138.158 21.4327 137.951 20.8673L137.935 20.8196C137.728 20.2502 137.095 19.7883 136.526 19.7883H101.895C101.326 19.7883 101.032 20.2542 101.239 20.8196L101.255 20.8673C101.462 21.4327 102.098 21.8986 102.664 21.8986Z" fill="#9EC8FF"/>
<path d="M104.272 26.3183H138.906C139.475 26.3183 139.769 25.8525 139.562 25.2871L139.547 25.2393C139.34 24.6699 138.707 24.208 138.138 24.208H103.507C102.938 24.208 102.644 24.6739 102.851 25.2393L102.867 25.2871C103.07 25.8565 103.706 26.3183 104.272 26.3183Z" fill="#9EC8FF"/>
<path d="M106.09 31.3194H140.721C141.29 31.3194 141.584 30.8536 141.377 30.2881L141.361 30.2404C141.155 29.671 140.522 29.2091 139.953 29.2091H105.322C104.753 29.2091 104.459 29.675 104.666 30.2404L104.681 30.2881C104.888 30.8536 105.521 31.3194 106.09 31.3194Z" fill="#9EC8FF"/>
<path d="M142.699 25.4543C144.068 29.221 147.674 32.279 150.754 32.279C153.831 32.279 155.216 29.225 153.843 25.4543C152.47 21.6876 148.864 18.6296 145.787 18.6296C142.707 18.6296 141.326 21.6876 142.699 25.4543Z" fill="#9EC8FF"/>
<path d="M156.473 104.698H159.43C160.055 104.698 160.378 104.193 160.151 103.568L159.263 101.131C159.036 100.506 158.348 100 157.723 100H154.766C154.141 100 153.819 100.506 154.045 101.131L154.933 103.568C155.16 104.189 155.848 104.698 156.473 104.698Z" fill="#9EC8FF"/>
<path d="M146.989 104.698H149.946C150.571 104.698 150.893 104.193 150.666 103.568L149.779 101.131C149.552 100.506 148.859 100 148.239 100H145.281C144.656 100 144.334 100.506 144.561 101.131L145.449 103.568C145.671 104.189 146.364 104.698 146.989 104.698Z" fill="#9EC8FF"/>
<path d="M137.501 104.698H140.458C141.083 104.698 141.405 104.193 141.178 103.568L140.291 101.131C140.064 100.506 139.375 100 138.75 100H135.793C135.168 100 134.846 100.506 135.073 101.131L135.96 103.568C136.187 104.189 136.876 104.698 137.501 104.698Z" fill="#9EC8FF"/>
<path d="M189.167 86.7146H248.824C250.726 86.7146 251.717 85.1577 251.025 83.2545L242.002 58.4601C241.309 56.5569 239.188 55 237.286 55H177.629C175.726 55 174.735 56.5569 175.428 58.4601L184.451 83.2545C185.143 85.1577 187.265 86.7146 189.167 86.7146Z" fill="#9EC8FF"/>
<path d="M191.189 84.1185H244.911C246.559 84.1185 247.415 82.7687 246.818 81.1202L239.347 60.5864C238.746 58.9379 236.908 57.5881 235.26 57.5881H181.537C179.89 57.5881 179.034 58.9379 179.631 60.5864L187.101 81.1202C187.702 82.7727 189.541 84.1185 191.189 84.1185Z" fill="white"/>
<path d="M245.803 85.2732C250.364 98.3453 245.687 102.379 245.687 102.379C245.687 102.379 245.652 94.8811 242.209 91.2299C238.766 87.5786 234.75 86.0417 234.75 86.0417L245.803 85.2732Z" fill="#9EC8FF"/>
<path d="M205.772 66.6307H234.993C235.515 66.6307 235.789 66.2006 235.598 65.679L235.522 65.468C235.331 64.9464 234.746 64.5164 234.225 64.5164H205.004C204.482 64.5164 204.208 64.9464 204.399 65.468L204.474 65.679C204.665 66.2006 205.246 66.6307 205.772 66.6307Z" fill="#9EC8FF"/>
<path d="M207.38 71.0504H236.601C237.122 71.0504 237.397 70.6204 237.206 70.0988L237.13 69.8877C236.939 69.3661 236.354 68.9361 235.833 68.9361H206.612C206.09 68.9361 205.816 69.3661 206.007 69.8877L206.082 70.0988C206.273 70.6204 206.854 71.0504 207.38 71.0504Z" fill="#9EC8FF"/>
<path d="M209.199 76.0475H238.42C238.941 76.0475 239.216 75.6175 239.025 75.0959L238.949 74.8848C238.758 74.3632 238.173 73.9332 237.652 73.9332H208.43C207.909 73.9332 207.634 74.3632 207.825 74.8848L207.901 75.0959C208.092 75.6215 208.673 76.0475 209.199 76.0475Z" fill="#9EC8FF"/>
<path d="M134.828 114.778H192.403C193.434 114.778 193.971 114.348 193.597 113.826L193.446 113.615C193.071 113.09 191.921 112.664 190.89 112.664H133.311C132.28 112.664 131.743 113.09 132.121 113.615L132.272 113.826C132.647 114.352 133.797 114.778 134.828 114.778Z" fill="#9EC8FF"/>
<path d="M137.996 122.08H195.575C196.606 122.08 197.143 121.65 196.765 121.129L196.614 120.918C196.239 120.396 195.089 119.966 194.058 119.966H136.479C135.448 119.966 134.911 120.396 135.289 120.918L135.44 121.129C135.815 121.654 136.965 122.08 137.996 122.08Z" fill="#9EC8FF"/>
<path d="M195.619 77.7756H199.845C201.748 77.7756 202.739 76.2187 202.046 74.3154L198.898 65.6671C198.206 63.7638 196.084 62.207 194.182 62.207H189.955C188.053 62.207 187.062 63.7638 187.754 65.6671L190.902 74.3154C191.595 76.2227 193.716 77.7756 195.619 77.7756Z" fill="#9EC8FF"/>
<path d="M69.2632 279.282C61.5897 237.16 63.2693 222.093 83.8222 187.714C104.375 153.332 106.337 89.3493 114.082 108.115C121.828 126.881 120.789 174.005 96.5066 196.876C72.2244 219.743 68.9567 229.984 67.516 239.294C66.0752 248.603 70.9826 277.212 70.9826 277.212L69.2632 279.282Z" fill="#9CD499"/>
<path d="M65.4185 252.135C65.4066 251.972 65.3946 251.812 65.3827 251.653C65.8324 248.197 68.2722 230.422 71.6473 223.411C75.3925 215.626 91.8221 202.076 96.4309 185.062C101.044 168.052 108.351 154.869 113.147 144.122C119.479 129.935 116.017 111.074 110.783 104.946C110.91 104.862 111.038 104.806 111.165 104.771L112.904 105.822C113.282 106.367 113.676 107.124 114.082 108.111C121.828 126.877 120.789 174.001 96.5066 196.872C72.2244 219.739 68.9568 229.98 67.516 239.29C67.1259 241.802 67.2016 245.716 67.516 250.096L65.4185 252.135Z" fill="#74B570"/>
<path d="M79.7507 271.849C74.0433 222.347 75.9458 205.214 86.9824 165.612C98.019 126.013 26.0879 35.771 28.3685 51.3834C30.653 66.9958 38.2628 105.834 58.0555 130.202C77.8482 154.57 79.3686 174.371 75.5637 195.315C71.7588 216.259 76.3239 264.996 76.3239 264.996L78.6084 273.756L79.7507 271.849Z" fill="#9CD499"/>
<path d="M77.1237 251.279C77.1317 251.279 77.1357 251.279 77.1436 251.279C77.4063 251.267 77.6132 251.048 77.6013 250.781C77.5973 250.63 77.0282 235.368 77.3148 222.845C77.6013 210.307 80.9963 188.825 83.0619 181.447C84.9445 174.726 87.3086 152.193 75.8262 128.92C70.1069 117.329 65.5418 109.999 59.2215 99.8572C52.9769 89.8311 45.2038 77.3563 32.8737 55.3771C32.7463 55.1462 32.4558 55.0665 32.2249 55.194C31.9941 55.3214 31.9145 55.612 32.0419 55.843C44.384 77.8421 52.1609 90.3289 58.4136 100.363C64.718 110.484 69.2711 117.795 74.9705 129.342C86.3216 152.344 83.9972 174.567 82.1425 181.188C80.065 188.614 76.6461 210.219 76.3595 222.825C76.073 235.38 76.6422 250.67 76.6461 250.821C76.6581 251.08 76.869 251.279 77.1237 251.279Z" fill="#74B570"/>
<path d="M77.848 289.635C74.4212 256.507 73.8481 272.844 88.0767 227.834C104.359 176.319 46.2585 130.584 36.7423 149.243C27.226 167.901 16.1894 226.54 20.3764 224.637C24.5634 222.734 52.348 168.283 53.1082 170.569C53.8684 172.854 90.7871 191.891 89.2667 211.31C87.7424 230.729 73.661 261.572 73.661 261.572L74.0431 290.017L77.848 289.635Z" fill="#9CD499"/>
<path d="M74.0432 289.627C74.0591 289.627 74.075 289.627 74.091 289.623L77.8959 289.241C78.0232 289.229 78.1387 289.165 78.2183 289.066C78.2979 288.966 78.3377 288.843 78.3217 288.715C77.9237 284.889 77.5616 281.664 77.267 279.075C75.671 265.012 75.671 265.012 80.0371 252.963C82.0072 247.52 84.7097 240.062 88.5305 227.974C91.3882 218.935 92.1245 209.566 90.7235 200.129C89.4897 191.812 86.632 183.609 82.2381 175.749C74.7039 162.275 62.8434 150.704 52.0256 146.268C44.5073 143.186 38.7801 144.19 36.3164 149.024C32.2767 156.943 27.4489 173.161 23.3973 192.401C21.061 203.506 17.6262 222.845 19.5764 224.888C19.8431 225.167 20.2132 225.234 20.5714 225.071C22.856 224.032 30.418 210.681 40.8537 191.935C46.0835 182.534 51.4844 172.839 52.9411 171.162C53.5301 171.815 55.0107 172.839 58.0833 174.921C68.4234 181.937 89.9435 196.542 88.7893 211.27C87.2928 230.383 73.3666 261.062 73.2273 261.373C73.1994 261.436 73.1835 261.508 73.1835 261.576L73.5656 289.157C73.5656 289.293 73.6253 289.42 73.7248 289.508C73.8123 289.583 73.9238 289.627 74.0432 289.627ZM77.3228 288.341L74.5128 288.624L74.1427 261.671C75.0223 259.728 88.2758 230.084 89.7445 211.346C90.9424 196.064 69.112 181.248 58.6246 174.133C56.1331 172.44 53.7769 170.844 53.562 170.402C53.4943 170.191 53.3072 170.039 53.0843 170.019C52.161 169.932 50.3381 172.938 40.0259 191.469C32.627 204.764 22.5097 222.937 20.2331 224.175C20.058 223.888 19.5406 222.328 20.5475 214.288C21.2759 208.475 22.6092 200.826 24.3087 192.751C28.3484 173.519 33.1563 157.334 37.1761 149.458C39.389 145.122 44.6706 144.281 51.6714 147.152C70.6443 154.933 99.7105 189.446 87.6271 227.687C83.8142 239.756 81.1157 247.202 79.1456 252.637C74.7079 264.896 74.7079 264.896 76.3238 279.183C76.6143 281.795 76.9486 284.737 77.3228 288.341Z" fill="#74B570"/>
<path d="M65.8882 291.005H83.1616C84.3476 291.005 85.4103 290.328 85.5217 289.488L91.3246 245.84C91.5913 243.825 90.2619 242.129 88.3595 242.129H60.6903C58.7878 242.129 57.4585 243.825 57.7252 245.84L63.5281 289.488C63.6395 290.332 64.6982 291.005 65.8882 291.005Z" fill="#7BCEE8"/>
<path d="M67.9338 289.5H70.4054C71.6153 289.5 72.5865 288.799 72.5666 287.927L71.691 250.224C71.6472 248.348 70.1109 246.772 68.2761 246.772H64.5229C62.6881 246.772 61.3548 248.348 61.5538 250.224L65.5617 287.927C65.6612 288.799 66.7239 289.5 67.9338 289.5Z" fill="#A2DFF2"/>
<path d="M86.3455 228.412L86.039 227.878C87.1574 223.837 88.0927 219.811 88.6897 216.052C88.0768 223.164 86.3455 228.412 86.3455 228.412Z" fill="#74B570"/>
<path d="M86.3456 196.502C87.4679 199.309 88.1525 202.236 88.5266 205.122C83.4282 188.379 55.0386 173.261 53.1919 170.712L52.8655 170.071C63.532 167.093 80.5825 182.088 86.3456 196.502Z" fill="#74B570"/>
<path d="M20.3485 223.602C20.5634 223.602 20.7584 223.454 20.8142 223.239L25.9723 202.244C30.0001 185.791 35.0149 165.313 40.6427 156.199C41.57 154.698 45.6217 152.663 51.3649 153.069C59.122 153.619 74.079 158.982 87.0658 188.718C87.1733 188.961 87.4519 189.068 87.6947 188.965C87.9375 188.857 88.0449 188.578 87.9414 188.335C74.7516 158.138 59.4085 152.679 51.4325 152.114C45.2316 151.676 40.9133 153.941 39.8308 155.693C34.1234 164.935 29.2996 184.632 25.0449 202.013L19.8868 223.008C19.8231 223.263 19.9823 223.522 20.237 223.586C20.2728 223.598 20.3127 223.602 20.3485 223.602Z" fill="#74B570"/>
<path d="M35.4807 196.211C35.5006 196.211 35.5166 196.211 35.5365 196.207C35.7991 196.176 35.9862 195.941 35.9544 195.678C35.9345 195.507 34.0002 178.246 38.5375 160.097C38.6012 159.842 38.4459 159.583 38.1912 159.516C37.9325 159.452 37.6777 159.607 37.6101 159.862C33.029 178.186 34.9832 195.61 35.0071 195.785C35.035 196.032 35.2419 196.211 35.4807 196.211Z" fill="#74B570"/>
<path d="M40.81 185.544C40.8299 185.544 40.8458 185.544 40.8657 185.54C41.1284 185.508 41.3154 185.274 41.2836 185.011C41.2637 184.851 39.4329 169.052 40.7105 155.992C40.7343 155.729 40.5433 155.494 40.2806 155.47C40.0219 155.442 39.7831 155.637 39.7592 155.9C38.4737 169.064 40.3164 184.963 40.3363 185.122C40.3642 185.365 40.5712 185.544 40.81 185.544Z" fill="#74B570"/>
<path d="M58.9669 100.777C59.146 100.777 59.3172 100.677 59.3968 100.506C59.5122 100.267 59.4127 99.9846 59.1739 99.8691C59.0386 99.8054 45.3831 93.124 37.4867 78.4513C37.3633 78.2204 37.0728 78.1328 36.8419 78.2562C36.6111 78.3796 36.5235 78.6703 36.6469 78.9012C44.6985 93.8567 58.6246 100.661 58.7639 100.729C58.8276 100.765 58.8993 100.777 58.9669 100.777Z" fill="#74B570"/>
<path d="M69.0563 118.078C69.2791 118.078 69.4782 117.922 69.5219 117.695C69.5737 117.437 69.4105 117.186 69.1518 117.13C69.0403 117.106 57.8564 114.709 44.5711 103.962C44.3642 103.795 44.0657 103.827 43.8985 104.034C43.7314 104.241 43.7632 104.54 43.9701 104.707C57.4505 115.609 68.8453 118.042 68.9607 118.066C68.9926 118.074 69.0244 118.078 69.0563 118.078Z" fill="#74B570"/>
<path d="M77.3905 134.809C77.5855 134.809 77.7049 134.801 77.7368 134.801C77.9995 134.781 78.1985 134.554 78.1786 134.287C78.1587 134.025 77.9278 133.825 77.6651 133.845C77.5895 133.849 69.8802 134.271 57.5262 125.002C57.3153 124.843 57.0167 124.886 56.8575 125.097C56.6983 125.308 56.7421 125.607 56.953 125.766C68.2961 134.279 75.7189 134.809 77.3905 134.809Z" fill="#74B570"/>
<path d="M206.224 22.4562H244.266C245.217 22.4562 245.993 21.6797 245.993 20.7281C245.993 19.7764 245.213 19 244.266 19H206.224C205.273 19 204.497 19.7764 204.497 20.7281C204.497 21.6797 205.273 22.4562 206.224 22.4562Z" fill="#9EC8FF"/>
<path d="M181.727 29.0897H244.266C245.217 29.0897 245.993 28.3093 245.993 27.3617C245.993 26.41 245.213 25.6336 244.266 25.6336H181.727C180.776 25.6336 180 26.414 180 27.3617C180 28.3093 180.776 29.0897 181.727 29.0897Z" fill="#9EC8FF"/>
<path d="M216.69 271.055H107.216C101.456 271.055 96.5212 266.883 95.4784 261.137L81.202 182.29C79.8568 174.857 85.4845 168 92.9391 168H202.414C208.173 168 213.112 172.173 214.151 177.919L228.427 256.765C229.773 264.203 224.145 271.055 216.69 271.055Z" fill="#75A1DE"/>
<path d="M221.805 257.06L207.234 179.846C206.171 174.22 201.132 170.134 195.254 170.134H83.9999C81.6637 172.846 80.4975 176.561 81.206 180.431L95.9878 260.93C97.0664 266.795 102.177 271.056 108.135 271.056H209.825C217.435 271.056 223.182 264.342 221.805 257.06Z" fill="#A8CEFF"/>
<path d="M195.409 281.615H174.625C170.92 281.615 167.915 278.314 167.915 274.241V236.227C167.915 229.745 163.131 224.489 157.233 224.489H146.375C140.477 224.489 135.693 229.745 135.693 236.227V278.796C135.693 286.075 141.086 291.964 147.708 291.92L204.428 291.53C204.428 286.055 200.392 281.615 195.409 281.615Z" fill="#75A1DE"/>
<path d="M136.525 237.079V278.999C136.525 285.824 141.81 291.402 148.5 291.884L203.855 291.538C203.851 290.63 199.485 288.977 194.096 288.977H171.616C167.609 288.977 164.357 285.724 164.357 281.715V237.079C164.357 230.697 159.183 225.52 152.803 225.52H148.083C141.695 225.52 136.525 230.693 136.525 237.079Z" fill="#A8CEFF"/>
</svg>
